<svg width="187" height="42" viewBox="0 0 187 42" fill="none" xmlns="http://www.w3.org/2000/svg">
<g clip-path="url(#clip0)">
<path fill-rule="evenodd" clip-rule="evenodd" d="M32.3302 12.4766C25.7721 16.3196 21.8769 15.4141 17.1944 16.62C12.5119 17.826 7.57558 18.0201 0 17.8164C0 17.8164 18.8115 42.3846 23.3995 41.2987C27.9256 40.2272 32.3302 12.4766 32.3302 12.4766Z" fill="#183255"/>
<path fill-rule="evenodd" clip-rule="evenodd" d="M24.6803 14.0423C19.0956 13.5818 13.6022 11.9949 5.35645 9.04688C5.35645 9.04688 17.0118 40.9656 22.4489 41.5151C27.8131 42.0568 41.704 14.931 41.704 14.931C33.092 16.4874 30.265 14.5033 24.6803 14.0423Z" fill="#2B5DA2"/>
<path fill-rule="evenodd" clip-rule="evenodd" d="M35.643 12.6321C30.0734 10.0552 25.0464 6.28196 17.7259 0C17.7259 0 17.0192 39.2021 22.4011 41.8215C27.7112 44.405 56.8167 18.0862 56.8167 18.0862C47.3254 16.5902 41.2126 15.209 35.643 12.6321Z" fill="#3B80DF"/>
<path fill-rule="evenodd" clip-rule="evenodd" d="M68.8809 12.6754H73.4957L77.7785 24.3085L82.0946 12.6754H86.726L80.1357 29.3981H75.4711L68.8809 12.6754ZM95.0766 12.2526C96.4489 12.2526 98.1366 12.6501 100.14 13.4449L104.489 12.6754V29.3981L100.14 28.6285C98.1219 29.4234 96.4342 29.8208 95.0766 29.8208C92.9518 29.8208 91.2088 29.0374 89.8476 27.4705C88.4864 25.9036 87.8058 23.7506 87.8058 21.0113C87.8058 18.3398 88.4836 16.2121 89.8393 14.6283C91.195 13.0445 92.9408 12.2526 95.0766 12.2526ZM96.4379 16.1755C95.1984 16.1755 94.1913 16.6207 93.4166 17.5112C92.642 18.4018 92.2546 19.5685 92.2546 21.0113C92.2546 22.4655 92.642 23.6435 93.4166 24.5453C94.1913 25.4471 95.1984 25.898 96.4379 25.898C97.1572 25.898 97.8655 25.7204 98.5627 25.3653C99.2599 25.0103 99.7856 24.5565 100.14 24.0042V18.1031C99.7856 17.5507 99.2599 17.0914 98.5627 16.725C97.8655 16.3586 97.1572 16.1755 96.4379 16.1755ZM109.032 25.2047V6.30078H113.348V24.038C113.348 24.5791 113.48 25.0243 113.746 25.3738C114.012 25.7232 114.377 25.898 114.842 25.898C115.151 25.898 115.447 25.8472 115.73 25.7458C116.012 25.6443 116.214 25.5203 116.336 25.3738L117.265 28.7386C116.479 29.4601 115.279 29.8208 113.663 29.8208C112.158 29.8208 111.01 29.4291 110.218 28.6456C109.427 27.8622 109.032 26.7152 109.032 25.2047ZM125.523 12.2526C126.895 12.2526 128.583 12.6501 130.586 13.4449L134.935 12.6754V29.3981L130.586 28.6285C128.568 29.4234 126.88 29.8208 125.523 29.8208C123.398 29.8208 121.655 29.0374 120.294 27.4705C118.933 25.9036 118.252 23.7506 118.252 21.0113C118.252 18.3398 118.93 16.2121 120.286 14.6283C121.641 13.0445 123.387 12.2526 125.523 12.2526ZM126.884 16.1755C125.645 16.1755 124.638 16.6207 123.863 17.5112C123.088 18.4018 122.701 19.5685 122.701 21.0113C122.701 22.4655 123.088 23.6435 123.863 24.5453C124.638 25.4471 125.645 25.898 126.884 25.898C127.603 25.898 128.312 25.7204 129.009 25.3653C129.706 25.0103 130.232 24.5565 130.586 24.0042V18.1031C130.232 17.5507 129.706 17.0914 129.009 16.725C128.312 16.3586 127.603 16.1755 126.884 16.1755ZM139.418 29.3981V12.6754L143.734 13.4449C146.582 12.6501 148.33 12.2526 148.98 12.2526V16.5475C148.681 16.4798 148.282 16.446 147.784 16.446C147.054 16.446 146.285 16.6348 145.477 17.0124C144.669 17.3901 144.088 17.8381 143.734 18.3567V29.3981H139.418ZM150.806 21.0113C150.806 19.3994 151.166 17.9283 151.885 16.5982C152.605 15.268 153.617 14.2112 154.923 13.4278C156.229 12.6444 157.69 12.2526 159.306 12.2526C161.763 12.2526 163.746 13.1009 165.257 14.7974C166.767 16.4939 167.523 18.7061 167.523 21.4341V22.4655H155.322C155.477 23.5477 155.969 24.4438 156.799 25.154C157.629 25.8641 158.714 26.2192 160.053 26.2192C160.783 26.2192 161.566 26.0699 162.402 25.7711C162.959 25.572 163.625 26.5826 164.402 28.8029C164.25 28.8857 163.893 29.0221 163.331 29.2121C162.13 29.6179 160.877 29.8208 159.571 29.8208C157.037 29.8208 154.943 29.012 153.288 27.3944C151.634 25.7768 150.806 23.6491 150.806 21.0113ZM155.288 19.4219H163.373C163.34 18.9936 163.24 18.5821 163.074 18.1876C162.908 17.7931 162.673 17.4154 162.368 17.0547C162.064 16.694 161.646 16.4037 161.115 16.1839C160.584 15.9641 159.981 15.8542 159.306 15.8542C158.664 15.8542 158.088 15.9613 157.579 16.1755C157.07 16.3896 156.661 16.6743 156.351 17.0294C156.041 17.3844 155.798 17.7621 155.62 18.1622C155.443 18.5624 155.333 18.9823 155.288 19.4219ZM177.069 12.2526C178.441 12.2526 180.129 12.6501 182.132 13.4449L186.481 12.6754V29.3981L182.132 28.6285C180.114 29.4234 178.426 29.8208 177.069 29.8208C174.944 29.8208 173.201 29.0374 171.84 27.4705C170.478 25.9036 169.798 23.7506 169.798 21.0113C169.798 18.3398 170.476 16.2121 171.831 14.6283C173.187 13.0445 174.933 12.2526 177.069 12.2526ZM178.43 16.1755C177.19 16.1755 176.183 16.6207 175.409 17.5112C174.634 18.4018 174.247 19.5685 174.247 21.0113C174.247 22.4655 174.634 23.6435 175.409 24.5453C176.183 25.4471 177.19 25.898 178.43 25.898C179.149 25.898 179.857 25.7204 180.555 25.3653C181.252 25.0103 181.778 24.5565 182.132 24.0042V18.1031C181.778 17.5507 181.252 17.0914 180.555 16.725C179.857 16.3586 179.149 16.1755 178.43 16.1755Z" fill="#FCFCFC"/>
</g>
<defs>
<clipPath id="clip0">
<rect width="186.48" height="42" fill="white"/>
</clipPath>
</defs>
</svg>
