<svg width="106" height="24" viewBox="0 0 106 24" fill="none" xmlns="http://www.w3.org/2000/svg">
<g clip-path="url(#clip0)">
<path d="M10.1797 11.486C10.3294 14.7963 10.5789 17.5549 10.9282 19.5612C11.1278 20.7649 11.3773 21.7179 11.6268 22.4201C11.7765 22.8214 11.9262 23.1223 12.0759 23.3731C12.2256 23.6239 12.4252 23.7744 12.6248 23.8747C12.8244 23.975 13.024 23.975 13.3234 23.975C13.6228 23.9248 13.9223 23.8747 14.3215 23.7242C15.0201 23.4734 15.8684 23.022 16.9163 22.4201C18.6628 21.3668 20.8584 19.812 23.4533 17.7555C25.7487 15.9499 27.9443 14.0439 29.3914 12.79C30.1899 12.0878 30.8386 11.5361 31.2877 11.1349L31.9364 10.533L31.9863 10.4828C26.9463 9.63015 23.3535 8.8778 20.1099 7.3731C16.8664 5.8684 13.9223 3.61134 10.03 0.200684V0.250841V1.15366C10.03 1.75554 10.03 2.65836 10.03 3.71166C9.9801 5.61761 10.03 8.5267 10.1797 11.486Z" fill="white"/>
<path fill-rule="evenodd" clip-rule="evenodd" d="M5.28947 14.8964C4.59086 13.2914 3.89225 11.6864 3.34334 10.3321C2.34533 10.3321 1.19762 10.3321 0 10.282C0 10.282 3.64275 15.097 7.18569 18.9089C6.58688 17.7553 5.93818 16.4011 5.28947 14.8964Z" fill="#CFD3DA"/>
<path d="M8.68275 11.5358C8.63285 9.98098 8.58295 8.47628 8.53305 7.12205C6.93623 6.67064 5.13981 6.06876 2.99408 5.31641C2.99408 5.31641 6.58692 15.4481 9.68076 20.8148C9.68076 20.7145 9.63086 20.5641 9.63086 20.4637C9.28156 18.3572 8.83245 14.9465 8.68275 11.5358Z" fill="#DEE1E5"/>
<path d="M39.0721 7.2229C39.8207 7.2229 40.5692 7.2229 41.3177 7.2229C41.5173 7.2229 41.5672 7.27306 41.667 7.47368C42.4155 9.4298 43.164 11.3358 43.9125 13.2919C43.9125 13.342 43.9624 13.3922 44.0123 13.4925C44.0622 13.3922 44.0622 13.342 44.1121 13.2417C44.8606 11.2856 45.6091 9.37964 46.3576 7.42353C46.4075 7.27306 46.4574 7.2229 46.6071 7.2229C47.3057 7.2229 48.0043 7.2229 48.703 7.2229C48.7529 7.2229 48.8028 7.2229 48.9026 7.2229C48.9026 7.27306 48.8527 7.37337 48.8527 7.42353C47.655 10.5332 46.4574 13.643 45.2598 16.7527C45.2099 16.9031 45.16 16.9031 45.0103 16.9031C44.3616 16.9031 43.663 16.9031 43.0143 16.9031C42.8646 16.9031 42.8147 16.853 42.7648 16.7527C41.5672 13.643 40.3696 10.5834 39.1719 7.47368C39.122 7.42353 39.122 7.32321 39.0721 7.27306C39.0721 7.27306 39.0721 7.27306 39.0721 7.2229Z" fill="white"/>
<path d="M56.7369 8.22595C56.7369 7.87486 56.7369 7.57391 56.7369 7.27297C57.5353 7.27297 58.2838 7.27297 59.0323 7.27297C59.0323 10.483 59.0323 13.693 59.0323 16.9031C58.2838 16.9031 57.4854 16.9031 56.687 16.9031C56.687 16.6021 56.687 16.3012 56.687 15.9501C56.6371 16.0002 56.6371 16.0002 56.5872 16.0002C55.19 17.3043 53.144 17.4046 51.5971 16.4015C50.2498 15.5488 49.5013 14.2949 49.3017 12.7401C49.1021 10.9846 49.6011 9.47987 50.8985 8.27611C52.3456 6.92188 54.4914 6.72125 56.0882 7.72439C56.2878 7.87486 56.4874 8.07548 56.7369 8.22595ZM56.687 12.088C56.687 11.8372 56.687 11.5865 56.687 11.2855C56.687 10.8341 56.5373 10.483 56.2878 10.1821C56.2379 10.1319 56.188 10.0818 56.1381 10.0316C55.1401 9.02846 53.643 8.9783 52.645 9.88112C51.6969 10.7338 51.3975 12.1382 51.9464 13.2918C52.4454 14.3451 53.4434 14.9971 54.5912 14.8466C55.5393 14.7463 56.188 14.1946 56.6371 13.3921C56.687 13.3419 56.687 13.2918 56.687 13.1915C56.687 12.8905 56.687 12.4893 56.687 12.088Z" fill="white"/>
<path d="M72.8048 8.22606C72.8048 7.92512 72.8048 7.57402 72.8048 7.27308C73.6033 7.27308 74.3518 7.27308 75.1502 7.27308C75.1502 10.4831 75.1502 13.6931 75.1502 16.9032C74.4017 16.9032 73.6033 16.9032 72.8548 16.9032C72.8548 16.6022 72.8548 16.3013 72.8548 15.9502C72.8049 16.0004 72.8049 16.0004 72.755 16.0004C71.208 17.4047 68.9625 17.4047 67.3657 16.1508C66.1182 15.1978 65.4695 13.9439 65.3697 12.3891C65.2699 10.7339 65.7689 9.32951 67.0164 8.22606C68.4635 6.87183 70.6092 6.6712 72.206 7.67434C72.4056 7.87496 72.6052 8.07559 72.8048 8.22606ZM72.8048 12.0881C72.8048 11.8373 72.8048 11.5364 72.8048 11.2856C72.8048 10.7841 72.6551 10.4831 72.3557 10.1822C72.3058 10.132 72.2559 10.0819 72.206 10.0317C71.1082 8.92825 69.4116 8.97841 68.4136 10.1822C67.6152 11.1352 67.5154 12.1884 68.0144 13.342C68.4635 14.4455 69.5114 15.0474 70.6591 14.8969C71.5573 14.7966 72.206 14.295 72.6552 13.4925C72.7051 13.3922 72.755 13.2919 72.755 13.1916C72.8049 12.8405 72.8048 12.4894 72.8048 12.0881Z" fill="white"/>
<path d="M105.29 16.9031C104.542 16.9031 103.743 16.9031 102.995 16.9031C102.995 16.6021 102.995 16.3012 102.995 15.9501C102.945 16.0002 102.895 16.0002 102.895 16.0002C101.398 17.3043 99.3522 17.4046 97.7055 16.3012C96.3581 15.3482 95.6595 14.0441 95.5098 12.4391C95.41 10.7839 95.909 9.37956 97.1067 8.27611C98.5538 6.92188 100.699 6.72125 102.296 7.72439C102.496 7.87486 102.696 8.02533 102.945 8.1758C102.945 7.87486 102.945 7.52376 102.945 7.22282C103.743 7.22282 104.492 7.22282 105.24 7.22282C105.29 10.483 105.29 13.693 105.29 16.9031ZM102.945 12.088C102.945 11.8372 102.945 11.5363 102.945 11.2855C102.945 10.8341 102.795 10.5332 102.546 10.2322C102.496 10.1821 102.446 10.1319 102.396 10.0818C101.448 9.12877 100.051 9.02846 99.0029 9.88112C98.0548 10.6335 97.7055 12.088 98.1546 13.2918C98.6037 14.3952 99.6516 15.0974 100.749 14.9971C101.747 14.8968 102.446 14.3451 102.895 13.5426C102.945 13.4924 102.945 13.3921 102.945 13.3419C102.945 12.8905 102.945 12.4893 102.945 12.088Z" fill="white"/>
<path d="M94.2623 12.8905C91.9169 12.8905 89.6215 12.8905 87.2762 12.8905C87.2762 13.6429 87.875 14.4454 88.7233 14.7463C89.6714 15.0974 90.9688 14.8968 91.7672 13.7432C92.366 14.0943 92.9649 14.4955 93.5637 14.8466C93.1645 15.4987 92.6655 16.0002 92.0167 16.4015C89.1225 18.157 85.5796 16.5018 84.8311 13.2416C84.2822 10.8341 85.4798 8.47672 87.6255 7.52374C89.9708 6.5206 92.7154 7.5739 93.8132 9.93126C94.2124 10.8341 94.412 11.7369 94.2623 12.74C94.2623 12.74 94.2623 12.7902 94.2623 12.8905ZM87.2762 11.2855C88.7732 11.2855 90.3201 11.2855 91.8171 11.2855C91.7173 10.3827 90.9688 9.27923 89.5217 9.27923C88.3241 9.32938 87.3261 10.2322 87.2762 11.2855Z" fill="white"/>
<path d="M63.6234 2.15698C63.6234 7.07234 63.6234 11.9877 63.6234 16.9031C62.8749 16.9031 62.0764 16.9031 61.3279 16.9031C61.3279 16.8529 61.3279 16.7526 61.3279 16.7024C61.3279 12.4893 61.3279 8.22595 61.3279 4.01278C61.3279 3.91247 61.3778 3.81215 61.4776 3.71184C62.1263 3.21027 62.8749 2.70871 63.6234 2.15698Z" fill="white"/>
<path d="M77.3459 7.27319C78.1443 7.27319 78.8928 7.27319 79.6413 7.27319C79.6413 7.77476 79.6413 8.27633 79.6413 8.7779C79.6912 8.72774 79.6912 8.72774 79.6912 8.72774C80.0405 8.0757 80.6394 7.7246 81.338 7.52398C81.5376 7.47382 81.7372 7.42366 81.9368 7.37351C82.835 7.17288 83.6833 7.37351 84.4817 7.87507C84.1823 8.52711 83.8829 9.12899 83.5835 9.78103C83.4837 9.73087 83.3839 9.68072 83.334 9.63056C82.6853 9.27946 82.0366 9.17915 81.338 9.53025C80.9887 9.68072 80.6394 9.83119 80.3399 10.1321C79.9407 10.5835 79.7411 11.1353 79.6912 11.687C79.6413 12.0381 79.6413 12.3892 79.6413 12.7904C79.6413 14.0945 79.6413 15.3986 79.6413 16.7027C79.6413 16.7528 79.6413 16.8531 79.6413 16.9033C78.8429 16.9033 78.0944 16.9033 77.3459 16.9033C77.3459 13.6933 77.3459 10.4832 77.3459 7.27319Z" fill="white"/>
</g>
<defs>
<clipPath id="clip0">
<rect width="105.29" height="24" fill="white"/>
</clipPath>
</defs>
</svg>
